<svg aria-hidden="true" style="position: absolute; width: 0; height: 0; overflow: hidden;" version="1.1" xmlns="http://www.w3.org/2000/svg" xmlns:xlink="http://www.w3.org/1999/xlink">
<defs>
<symbol id="icon-logo" viewBox="0 0 57 32">
<path d="M10.112 9.383l-8.055-8.099c-0.817-0.822-1.926-1.284-3.083-1.284h-6.995c-1.158-0.001-2.269 0.461-3.088 1.284l-4.028 4.050-4.039 4.050c-0.818 0.823-1.276 1.939-1.275 3.102v7.030c-0.001 1.163 0.457 2.279 1.275 3.102l8.057 8.099c0.818 0.822 1.927 1.284 3.084 1.284h6.995c1.159 0.002 2.271-0.46 3.091-1.284l8.065-8.099c0.817-0.823 1.275-1.939 1.274-3.102v-7.030c0.001-1.163-0.459-2.279-1.277-3.102z"></path>
<path stroke-linejoin="miter" stroke-linecap="butt" stroke-miterlimit="4" stroke-width="14.1714" d="M-4.546 7.505c-4.668 0-8.452 3.803-8.452 8.495s3.784 8.495 8.452 8.495 8.452-3.803 8.452-8.494c-0.001-4.691-3.784-8.494-8.452-8.495z"></path>
<path d="M19.94 10.619h-3.215v10.697h3.191c3.41 0 5.554-2.047 5.554-5.349s-2.113-5.348-5.53-5.348zM19.916 19.875h-1.463v-7.813h1.447c2.39 0 3.739 1.455 3.739 3.905s-1.327 3.912-3.723 3.912v-0.004z"></path>
<path d="M29.396 13.409c-1.99 0-3.192 1.101-3.256 2.606h1.681c0.047-0.869 0.603-1.35 1.545-1.35 0.977 0 1.568 0.543 1.568 1.576v0.234l-1.955 0.196c-1.71 0.187-3.1 0.776-3.1 2.371 0 1.413 1.125 2.424 2.737 2.424 1.157 0 2.021-0.606 2.346-1.676h0.045v1.521h1.621v-4.754c-0.022-2.092-1.269-3.148-3.231-3.148zM30.924 17.927c0 1.474-0.694 2.296-1.897 2.296-0.742 0-1.388-0.419-1.388-1.148s0.586-1.116 1.603-1.224l1.683-0.196v0.273z"></path>
<path d="M37.379 13.409c-1.125 0-1.93 0.59-2.252 1.674h-0.030v-1.519h-1.635v7.758h1.681v-4.657c0-1.271 0.509-1.984 1.543-1.984s1.547 0.652 1.547 2.092v4.544h1.676v-5.039c0-1.705-0.832-2.869-2.53-2.869z"></path>
<path d="M44.36 20.215c-1.28 0-1.99-1.148-1.99-2.775s0.663-2.776 1.913-2.776c0.911 0 1.541 0.573 1.727 1.576h1.688c-0.293-1.829-1.65-2.822-3.456-2.822-2.252 0-3.656 1.939-3.656 4.032 0 2.139 1.447 4.032 3.715 4.032 1.809 0 3.178-1.023 3.471-2.852h-1.71c-0.159 0.982-0.808 1.585-1.702 1.585z"></path>
<path d="M51.896 13.409c-2.298 0-3.611 1.892-3.611 4.032s1.344 4.032 3.64 4.032c1.883 0 3.086-1.023 3.409-2.554h-1.681c-0.186 0.621-0.617 1.303-1.618 1.303-1.173 0-1.99-0.822-2.069-2.232h5.513c0.234-2.704-1.287-4.581-3.584-4.581zM49.982 16.727c0.107-1.256 0.782-2.061 1.914-2.061s1.789 0.807 1.896 2.061h-3.81z"></path>
<path d="M11.026 9.383l-8.055-8.099c-0.817-0.822-1.926-1.284-3.083-1.284h-6.995c-1.158-0.001-2.269 0.461-3.088 1.284l-4.028 4.050-4.039 4.050c-0.818 0.823-1.276 1.939-1.275 3.102v7.030c-0.001 1.163 0.457 2.279 1.275 3.102l8.057 8.099c0.818 0.822 1.927 1.284 3.084 1.284h6.995c1.159 0.002 2.271-0.46 3.091-1.284l8.065-8.099c0.817-0.823 1.275-1.939 1.274-3.102v-7.030c0.001-1.163-0.459-2.279-1.277-3.102z"></path>
<path stroke-linejoin="miter" stroke-linecap="butt" stroke-miterlimit="4" stroke-width="14.1714" d="M-3.632 7.505c-4.668 0-8.452 3.803-8.452 8.495s3.784 8.495 8.452 8.495 8.452-3.803 8.452-8.494c-0-4.691-3.784-8.494-8.452-8.495z"></path>
<path d="M20.854 10.619h-3.215v10.697h3.191c3.41 0 5.554-2.047 5.554-5.349s-2.113-5.348-5.53-5.348zM20.83 19.875h-1.463v-7.813h1.447c2.39 0 3.739 1.455 3.739 3.905s-1.327 3.912-3.723 3.912v-0.004z"></path>
<path d="M30.31 13.409c-1.99 0-3.192 1.101-3.256 2.606h1.681c0.047-0.869 0.603-1.35 1.545-1.35 0.977 0 1.568 0.543 1.568 1.576v0.234l-1.955 0.196c-1.71 0.187-3.1 0.776-3.1 2.371 0 1.413 1.125 2.424 2.737 2.424 1.157 0 2.021-0.606 2.346-1.676h0.045v1.521h1.621v-4.754c-0.022-2.092-1.269-3.148-3.231-3.148zM31.838 17.927c0 1.474-0.694 2.296-1.897 2.296-0.742 0-1.388-0.419-1.388-1.148s0.586-1.116 1.603-1.224l1.683-0.196v0.273z"></path>
<path d="M38.293 13.409c-1.125 0-1.93 0.59-2.252 1.674h-0.030v-1.519h-1.635v7.758h1.681v-4.657c0-1.271 0.509-1.984 1.543-1.984s1.547 0.652 1.547 2.092v4.544h1.676v-5.039c0-1.705-0.832-2.869-2.53-2.869z"></path>
<path d="M45.274 20.215c-1.28 0-1.99-1.148-1.99-2.775s0.663-2.776 1.913-2.776c0.911 0 1.541 0.573 1.727 1.576h1.688c-0.293-1.829-1.65-2.822-3.456-2.822-2.252 0-3.656 1.939-3.656 4.032 0 2.139 1.447 4.032 3.715 4.032 1.809 0 3.178-1.023 3.471-2.852h-1.71c-0.159 0.982-0.808 1.585-1.702 1.585z"></path>
<path d="M52.81 13.409c-2.298 0-3.611 1.892-3.611 4.032s1.344 4.032 3.64 4.032c1.883 0 3.086-1.023 3.409-2.554h-1.681c-0.186 0.621-0.617 1.303-1.618 1.303-1.173 0-1.99-0.822-2.069-2.232h5.513c0.234-2.704-1.287-4.581-3.584-4.581zM50.896 16.727c0.107-1.256 0.782-2.061 1.914-2.061s1.789 0.807 1.896 2.061h-3.81z"></path>
</symbol>
</defs>
</svg>
